<?xml version="1.0" encoding="utf-8"?>
<!-- Generator: Adobe Illustrator 23.0.4, SVG Export Plug-In . SVG Version: 6.00 Build 0)  -->
<svg version="1.1" id="Layer_1" xmlns="http://www.w3.org/2000/svg" xmlns:xlink="http://www.w3.org/1999/xlink" x="0px" y="0px"
	 viewBox="0 0 16383 16383" style="enable-background:new 0 0 16383 16383;" xml:space="preserve">
<style type="text/css">
	.st0{font-family:'MyriadPro-Regular';}
	.st1{font-size:12px;}
	.st2{fill:#FEF9E8;enable-background:new    ;}
</style>
<text transform="matrix(1 0 0 1 8163.4761 8195.4756)" class="st0 st1">semantics</text>
<path class="st2" d="M14870.6-454.5c-606-21-1183.1-216.7-1734.2-430.7c-551.1-214-1097-451.2-1688.5-564.6
	c-380.4-72.9-815.5-83.3-1122,120.7c-295,196.3-390.3,535.1-441.5,849.5c-38.6,236.5-61.2,485.5,44.4,706.9
	c73.3,153.7,203.6,283,293.6,430.2c313.3,512.4,91.9,1144.2-247.7,1644.4c-159.3,234.7-344,458.5-467,708.4
	c-122.9,249.8-179.8,536.1-72.2,790.9c106.6,252.6,360.6,442.3,635.8,575.7c558.9,271,1217.4,348.6,1859.6,392.5
	c1421.5,97.2,2850.7,55.1,4276,13c527.5-15.6,1057.3-31.4,1576.2-113c288.2-45.3,585.7-117.2,794.9-290.7
	c265.6-220.3,331.4-593.4,153.4-869.6c-298.5-463.4-1123.8-578.5-1332.5-1075.8c-114.8-273.7,3.1-578.6,170-832.5
	c358-544.6,958.1-1022.4,989.7-1644.9c21.7-427.5-266.8-855.7-712.8-1058c-467.6-212-1115.9-185.4-1460.8,165.6
	C16029.8-575,15405.6-435.9,14870.6-454.5z"/>
<path class="st2" d="M3110.4,7746.4c6.5-606.3,188.1-1188,388.8-1744.1c200.7-556.1,424.6-1107.6,523.8-1701.6
	c63.8-382.1,63.6-817.2-147.7-1118.8c-203.3-290.2-544.3-377.3-859.8-420.9c-237.4-32.9-486.8-49.5-705.6,61.4
	c-151.9,77-278,210.3-423,303.9C1382.2,3451.9,745.3,3245.7,237,2918.3c-238.4-153.6-466.7-332.9-719.4-449.8
	c-252.7-116.9-540.2-166.8-792.4-53.2c-249.9,112.6-433.5,371.1-560.3,649.4c-257.5,565.2-319.2,1225.5-347.7,1868.5
	c-63,1423.5,13.5,2851.2,89.9,4275.1c28.3,526.9,56.9,1056.2,150.9,1573c52.2,287,131.2,582.7,309.8,787.6
	c226.6,260.2,601.2,317,873.1,132.5c456.1-309.6,551.3-1137.4,1043.4-1358c270.9-121.4,578.5-10.8,836.3,149.9
	c553.1,344.8,1045.1,933.2,1668.2,949.9c427.9,11.4,849-287.3,1040.5-738.1c200.7-472.5,158.5-1120-200.7-1456.4
	C3258.7,8902.4,3104.7,8281.8,3110.4,7746.4z"/>
<path class="st2" d="M13640.2,8791.3c-327.4,510.3-790.2,906.8-1255.6,1271.5s-947.9,713-1347.3,1163.8
	c-256.9,289.9-487.8,658.7-468.9,1026.4c18.2,353.8,260.9,608.7,505.1,813.3c183.7,153.9,386.2,300.4,630.5,322.6
	c169.6,15.4,347.2-30.6,519.8-32.9c600.5-7.9,1030.8,505,1287.6,1052.4c120.5,256.8,218.7,529.9,370.8,763.1
	c152.1,233.2,369.2,428.2,643.2,465.8c271.6,37.3,564.4-84.3,819.6-252.8c518.3-342.2,921.2-868.9,1286.7-1398.7
	c809.2-1172.8,1502.5-2423.2,2193.8-3670.4c255.8-461.5,512.7-925.2,707.4-1413c108.1-270.9,198.2-563.4,155.7-831.9
	c-53.9-340.8-341.1-587.9-669.5-575.8c-550.8,20.2-1071.1,671.1-1605.2,596.7c-294-41-496-298-629.1-571.1
	c-285.6-585.9-390.1-1345.8-909.2-1690.7c-356.6-236.9-872-207.4-1273.6,72.9c-421,293.8-729,864.9-603.2,1340.7
	C14128.3,7732.9,13929.3,8340.7,13640.2,8791.3z"/>
<path class="st2" d="M2735.6,18049.1c-242.2-555.9-314.4-1161-358.8-1750.5c-44.4-589.5-65.7-1184.3-218.3-1766.9
	c-98.1-374.7-276.3-771.7-592.5-960.4c-304.2-181.6-651-121.5-956.8-32.3c-230,67.2-464.4,154-618.7,344.7
	c-107.1,132.4-167.6,305.6-261.6,450.4c-327.3,503.6-992.8,576-1590.6,485.2c-280.4-42.6-562.1-112.8-840.4-116.1
	c-278.4-3.2-561.2,68.8-744.8,275.7c-182,205-243.7,516-245.5,821.8c-3.7,621.1,210.2,1248.8,447.3,1847.2
	c524.9,1324.6,1178.9,2596.1,1831.2,3864c241.4,469.2,484,940.5,781.3,1373.6c165.1,240.5,358.2,478,604.9,591.9
	c313.3,144.7,678.3,43.3,850.9-236.3c289.5-469.1,37.6-1263.4,396.4-1666c197.5-221.6,523.5-246.6,824.5-205.4
	c645.7,88.3,1335.5,423.9,1910.8,184.2c395.1-164.7,657.2-609.5,647.4-1099.2c-10.2-513.3-313.7-1086.8-779.1-1246.8
	C3343.9,19043.2,2949.4,18539.9,2735.6,18049.1z"/>
</svg>
