<?xml version="1.0" encoding="utf-8"?>
<!-- Generator: Adobe Illustrator 23.0.4, SVG Export Plug-In . SVG Version: 6.00 Build 0)  -->
<svg version="1.1" id="a329d3bf-4b11-4261-9182-40685c3b1c8f"
	 xmlns="http://www.w3.org/2000/svg" xmlns:xlink="http://www.w3.org/1999/xlink" x="0px" y="0px" viewBox="0 0 1118 802.8"
	 style="enable-background:new 0 0 1118 802.8;" xml:space="preserve">
<style type="text/css">
	.st0{opacity:0.1;fill:#38D39F;enable-background:new    ;}
	.st1{fill:none;stroke:#535461;stroke-width:2;stroke-miterlimit:10;}
	.st2{fill:#38D39F;}
	.st3{opacity:0.25;enable-background:new    ;}
	.st4{fill:#FBD56F;}
	.st5{opacity:0.1;enable-background:new    ;}
	.st6{fill:url(#SVGID_1_);}
	.st7{fill:#434175;}
	.st8{fill:#565387;}
	.st9{fill:#EE8E9E;}
	.st10{opacity:0.1;}
	.st11{opacity:0.2;enable-background:new    ;}
	.st12{fill:#FAD46F;}
</style>
<title>Savings</title>
<ellipse class="st0" cx="559" cy="734.9" rx="559" ry="67.9"/>
<path class="st1" d="M956.5,768.2c0,0,29.2-37.1,26.8-73.9c-1.1-15.4,2.9-30.8,11.3-43.8c4-6.1,8.6-11.9,13.7-17.2"/>
<path class="st2" d="M1006.9,610.1c-2.1,5.2,1.3,23.8,1.3,23.8s15.3-11.2,17.3-16.4c2-5.2-0.5-11-5.6-13
	C1014.8,602.4,1008.9,604.9,1006.9,610.1L1006.9,610.1z"/>
<path class="st2" d="M980.1,632.5c1.1,5.4,14,19.3,14,19.3s6.7-17.7,5.7-23.2s-6.4-9-11.8-7.9C982.5,621.7,979,627,980.1,632.5
	L980.1,632.5z"/>
<path class="st2" d="M961.3,681.5c3.7,4.2,21.9,9.6,21.9,9.6s-3.1-18.7-6.8-22.9c-3.7-4.2-10-4.6-14.2-0.9
	C958,671,957.6,677.3,961.3,681.5C961.3,681.5,961.3,681.5,961.3,681.5L961.3,681.5z"/>
<path class="st2" d="M955.4,721.8c2.9,4.7,19.9,13.1,19.9,13.1s0.1-19-2.8-23.7s-9.1-6.2-13.8-3.3
	C954,710.9,952.5,717.1,955.4,721.8L955.4,721.8z"/>
<path class="st2" d="M1013.3,660.5c-5.1,2.1-23.8-1-23.8-1s11-15.4,16.2-17.5c5.1-2.1,11,0.3,13.1,5.4
	C1020.9,652.5,1018.5,658.4,1013.3,660.5C1013.3,660.5,1013.3,660.5,1013.3,660.5z"/>
<path class="st2" d="M1005.9,707.6c-5.5,0.5-22.4-8.1-22.4-8.1s15.1-11.4,20.7-11.9c5.5-0.5,10.4,3.6,10.9,9.1
	S1011.4,707.1,1005.9,707.6C1005.9,707.6,1005.9,707.6,1005.9,707.6z"/>
<path class="st2" d="M992.3,752.3c-5.4,1.4-23.5-4.2-23.5-4.2s13-13.8,18.4-15.2c5.4-1.4,10.9,1.8,12.3,7.2
	C1000.9,745.4,997.7,750.9,992.3,752.3L992.3,752.3z"/>
<path class="st3" d="M1006.9,610.1c-2.1,5.2,1.3,23.8,1.3,23.8s15.3-11.2,17.3-16.4c2-5.2-0.5-11-5.6-13
	C1014.8,602.4,1008.9,604.9,1006.9,610.1L1006.9,610.1z"/>
<path class="st3" d="M980.1,632.5c1.1,5.4,14,19.3,14,19.3s6.7-17.7,5.7-23.2s-6.4-9-11.8-7.9C982.5,621.7,979,627,980.1,632.5
	L980.1,632.5z"/>
<path class="st3" d="M961.3,681.5c3.7,4.2,21.9,9.6,21.9,9.6s-3.1-18.7-6.8-22.9c-3.7-4.2-10-4.6-14.2-0.9
	C958,671,957.6,677.3,961.3,681.5C961.3,681.5,961.3,681.5,961.3,681.5L961.3,681.5z"/>
<path class="st3" d="M955.4,721.8c2.9,4.7,19.9,13.1,19.9,13.1s0.1-19-2.8-23.7s-9.1-6.2-13.8-3.3
	C954,710.9,952.5,717.1,955.4,721.8L955.4,721.8z"/>
<path class="st3" d="M1013.3,660.5c-5.1,2.1-23.8-1-23.8-1s11-15.4,16.2-17.5c5.1-2.1,11,0.3,13.1,5.4
	C1020.9,652.5,1018.5,658.4,1013.3,660.5C1013.3,660.5,1013.3,660.5,1013.3,660.5z"/>
<path class="st3" d="M1005.9,707.6c-5.5,0.5-22.4-8.1-22.4-8.1s15.1-11.4,20.7-11.9c5.5-0.5,10.4,3.6,10.9,9.1
	S1011.4,707.1,1005.9,707.6C1005.9,707.6,1005.9,707.6,1005.9,707.6z"/>
<path class="st3" d="M992.3,752.3c-5.4,1.4-23.5-4.2-23.5-4.2s13-13.8,18.4-15.2c5.4-1.4,10.9,1.8,12.3,7.2
	C1000.9,745.4,997.7,750.9,992.3,752.3L992.3,752.3z"/>
<path class="st1" d="M956.7,766.6c0,0,41.7-22.1,54.4-56.7c5.3-14.5,15.1-27,28-35.5c6.2-4,12.7-7.4,19.5-10.2"/>
<path class="st2" d="M1066.9,642.5c-4,3.9-8.5,22.3-8.5,22.3s18.5-4.1,22.5-7.9c4-3.9,4-10.2,0.1-14.2
	C1077.2,638.7,1070.8,638.6,1066.9,642.5z"/>
<path class="st2" d="M1033.3,652.1c-1.2,5.4,5,23.3,5,23.3s13.3-13.5,14.6-18.9c1.2-5.4-2.2-10.8-7.6-12
	C1039.9,643.3,1034.5,646.7,1033.3,652.1z"/>
<path class="st2" d="M996.3,689.3c1.7,5.3,16.1,17.6,16.1,17.6s4.7-18.4,3-23.7c-1.7-5.3-7.3-8.2-12.6-6.6S994.6,684,996.3,689.3
	C996.2,689.3,996.3,689.3,996.3,689.3z"/>
<path class="st2" d="M974.6,723.8c0.8,5.5,12.9,20.1,12.9,20.1s7.8-17.3,7-22.8c-0.8-5.5-5.8-9.3-11.3-8.6
	C977.7,713.2,973.8,718.3,974.6,723.8L974.6,723.8L974.6,723.8z"/>
<path class="st2" d="M1052.3,691.3c-5.5-0.1-21.4-10.6-21.4-10.6s16.3-9.6,21.9-9.5s9.9,4.8,9.8,10.3S1057.8,691.4,1052.3,691.3
	L1052.3,691.3z"/>
<path class="st2" d="M1026.4,731.3c-5.2-1.8-17.2-16.5-17.2-16.5s18.5-4.3,23.7-2.5c5.2,1.8,8,7.5,6.2,12.8
	C1037.4,730.3,1031.7,733.1,1026.4,731.3L1026.4,731.3z"/>
<path class="st2" d="M995.9,766.7c-5.5-0.9-19.8-13.4-19.8-13.4s17.5-7.4,23-6.5c5.5,0.9,9.2,6,8.3,11.5
	C1006.6,763.8,1001.4,767.6,995.9,766.7L995.9,766.7z"/>
<path class="st0" d="M637.1,95.1c-55.2-1.9-107.8-19.8-158.1-39.3s-100-41.1-153.9-51.5c-34.7-6.6-74.3-7.6-102.3,11
	c-26.9,17.9-35.6,48.8-40.2,77.4c-3.5,21.6-5.6,44.3,4,64.4c6.7,14,18.6,25.8,26.8,39.2c28.6,46.7,8.4,104.3-22.6,149.9
	c-14.5,21.4-31.4,41.8-42.6,64.6s-16.4,48.9-6.6,72.1c9.7,23,32.9,40.3,58,52.5c50.9,24.7,111,31.8,169.5,35.8
	c129.6,8.9,259.9,5,389.8,1.2c48.1-1.4,96.4-2.9,143.7-10.3c26.3-4.1,53.4-10.7,72.5-26.5c24.2-20.1,30.2-54.1,14-79.3
	c-27.2-42.2-102.4-52.7-121.5-98.1c-10.5-25,0.3-52.7,15.5-75.9c32.6-49.6,87.3-93.2,90.2-149.9c2-39-24.3-78-65-96.4
	c-42.6-19.3-101.7-16.9-133.2,15.1C742.8,84.1,685.9,96.8,637.1,95.1z"/>
<ellipse class="st4" cx="542.6" cy="664.5" rx="37.6" ry="39.9"/>
<ellipse class="st5" cx="542.6" cy="664.5" rx="37.6" ry="39.9"/>
<ellipse class="st4" cx="549" cy="665.4" rx="37.6" ry="39"/>
<path class="st4" d="M564.3,700.7l-3.9-2.2c0,0-1.8,7.6-1.2,13.1c0.1,1.1,0.9,2.1,2,2.3c9,2.2,51.8,11.7,81.3-1.7
	c0.9-0.4,1.5-1.2,1.6-2.2c0.4-3.3-0.9-10.2-1.4-11.6C641.5,695.7,564.3,700.7,564.3,700.7z"/>
<path class="st5" d="M564.3,700.7l-3.9-2.2c0,0-1.8,7.6-1.2,13.1c0.1,1.1,0.9,2.1,2,2.3c9,2.2,51.8,11.7,81.3-1.7
	c0.9-0.4,1.5-1.2,1.6-2.2c0.4-3.3-0.9-10.2-1.4-11.6C641.5,695.7,564.3,700.7,564.3,700.7z"/>
<ellipse class="st4" cx="601.5" cy="698.6" rx="41.1" ry="9.3"/>
<path class="st4" d="M580,687.1l-3.9-2.2c0,0-1.8,7.6-1.2,13.1c0.1,1.1,0.9,2.1,2,2.3c9,2.2,51.8,11.7,81.3-1.7
	c0.9-0.4,1.5-1.2,1.6-2.2c0.4-3.3-0.9-10.2-1.4-11.6C657.2,682,580,687.1,580,687.1z"/>
<path class="st5" d="M580,687.1l-3.9-2.2c0,0-1.8,7.6-1.2,13.1c0.1,1.1,0.9,2.1,2,2.3c9,2.2,51.8,11.7,81.3-1.7
	c0.9-0.4,1.5-1.2,1.6-2.2c0.4-3.3-0.9-10.2-1.4-11.6C657.2,682,580,687.1,580,687.1z"/>
<ellipse class="st4" cx="617.2" cy="684.9" rx="41.1" ry="9.3"/>
<path class="st4" d="M593.8,669.1l-3.9-2.2c0,0-1.8,7.6-1.2,13.1c0.1,1.1,0.9,2.1,2,2.3c9,2.2,51.8,11.7,81.3-1.7
	c0.9-0.4,1.5-1.2,1.6-2.2c0.4-3.3-0.9-10.2-1.4-11.6C671.1,664,593.8,669.1,593.8,669.1z"/>
<path class="st5" d="M593.8,669.1l-3.9-2.2c0,0-1.8,7.6-1.2,13.1c0.1,1.1,0.9,2.1,2,2.3c9,2.2,51.8,11.7,81.3-1.7
	c0.9-0.4,1.5-1.2,1.6-2.2c0.4-3.3-0.9-10.2-1.4-11.6C671.1,664,593.8,669.1,593.8,669.1z"/>
<ellipse class="st4" cx="631" cy="666.9" rx="41.1" ry="9.3"/>
<path class="st4" d="M578.5,650.4l-3.9-2.2c0,0-1.8,7.6-1.2,13.1c0.1,1.1,0.9,2.1,2,2.3c9,2.2,51.8,11.7,81.3-1.7
	c0.9-0.4,1.5-1.2,1.6-2.2c0.4-3.3-0.9-10.2-1.4-11.6C655.7,645.3,578.5,650.4,578.5,650.4z"/>
<path class="st5" d="M578.5,650.4l-3.9-2.2c0,0-1.8,7.6-1.2,13.1c0.1,1.1,0.9,2.1,2,2.3c9,2.2,51.8,11.7,81.3-1.7
	c0.9-0.4,1.5-1.2,1.6-2.2c0.4-3.3-0.9-10.2-1.4-11.6C655.7,645.3,578.5,650.4,578.5,650.4z"/>
<ellipse class="st4" cx="615.7" cy="648.2" rx="41.1" ry="9.3"/>
<path class="st4" d="M613.1,635.4l-3.9-2.2c0,0-1.8,7.6-1.2,13.1c0.1,1.1,0.9,2.1,2,2.3c9,2.2,51.8,11.7,81.3-1.7
	c0.9-0.4,1.5-1.2,1.6-2.2c0.4-3.3-0.9-10.2-1.4-11.6C690.3,630.3,613.1,635.4,613.1,635.4z"/>
<path class="st5" d="M613.1,635.4l-3.9-2.2c0,0-1.8,7.6-1.2,13.1c0.1,1.1,0.9,2.1,2,2.3c9,2.2,51.8,11.7,81.3-1.7
	c0.9-0.4,1.5-1.2,1.6-2.2c0.4-3.3-0.9-10.2-1.4-11.6C690.3,630.3,613.1,635.4,613.1,635.4z"/>
<ellipse class="st4" cx="650.3" cy="633.2" rx="41.1" ry="9.3"/>
<path class="st4" d="M589.7,625.3l-3.9-2.2c0,0-1.8,7.6-1.2,13.1c0.1,1.1,0.9,2.1,2,2.3c9,2.2,51.8,11.7,81.3-1.7
	c0.9-0.4,1.5-1.2,1.6-2.2c0.4-3.3-0.9-10.2-1.4-11.6C666.9,620.2,589.7,625.3,589.7,625.3z"/>
<path class="st5" d="M589.7,625.3l-3.9-2.2c0,0-1.8,7.6-1.2,13.1c0.1,1.1,0.9,2.1,2,2.3c9,2.2,51.8,11.7,81.3-1.7
	c0.9-0.4,1.5-1.2,1.6-2.2c0.4-3.3-0.9-10.2-1.4-11.6C666.9,620.2,589.7,625.3,589.7,625.3z"/>
<ellipse class="st4" cx="626.9" cy="623.1" rx="41.1" ry="9.3"/>
<path class="st4" d="M605.3,605.8l-3.9-2.2c0,0-1.8,7.6-1.2,13.1c0.1,1.1,0.9,2.1,2,2.3c9,2.2,51.8,11.7,81.3-1.7
	c0.9-0.4,1.5-1.2,1.6-2.2c0.4-3.3-0.9-10.2-1.4-11.6C682.5,600.8,605.3,605.8,605.3,605.8z"/>
<path class="st5" d="M605.3,605.8l-3.9-2.2c0,0-1.8,7.6-1.2,13.1c0.1,1.1,0.9,2.1,2,2.3c9,2.2,51.8,11.7,81.3-1.7
	c0.9-0.4,1.5-1.2,1.6-2.2c0.4-3.3-0.9-10.2-1.4-11.6C682.5,600.8,605.3,605.8,605.3,605.8z"/>
<ellipse class="st4" cx="642.5" cy="603.6" rx="41.1" ry="9.3"/>
<path class="st4" d="M613,582.7l-3.9-2.2c0,0-1.8,7.6-1.2,13.1c0.1,1.1,0.9,2.1,2,2.3c9,2.2,51.8,11.7,81.3-1.7
	c0.9-0.4,1.5-1.2,1.6-2.2c0.4-3.3-0.9-10.2-1.4-11.6C690.2,577.6,613,582.7,613,582.7z"/>
<path class="st5" d="M613,582.7l-3.9-2.2c0,0-1.8,7.6-1.2,13.1c0.1,1.1,0.9,2.1,2,2.3c9,2.2,51.8,11.7,81.3-1.7
	c0.9-0.4,1.5-1.2,1.6-2.2c0.4-3.3-0.9-10.2-1.4-11.6C690.2,577.6,613,582.7,613,582.7z"/>
<ellipse class="st4" cx="650.2" cy="580.5" rx="41.1" ry="9.3"/>
<path class="st4" d="M682.4,706.1l-3.9-2.2c0,0-1.8,7.6-1.2,13.1c0.1,1.1,0.9,2.1,2,2.3c9,2.2,51.8,11.7,81.3-1.7
	c0.9-0.4,1.5-1.2,1.6-2.2c0.4-3.3-0.9-10.2-1.4-11.6C759.6,701,682.4,706.1,682.4,706.1z"/>
<path class="st5" d="M682.4,706.1l-3.9-2.2c0,0-1.8,7.6-1.2,13.1c0.1,1.1,0.9,2.1,2,2.3c9,2.2,51.8,11.7,81.3-1.7
	c0.9-0.4,1.5-1.2,1.6-2.2c0.4-3.3-0.9-10.2-1.4-11.6C759.6,701,682.4,706.1,682.4,706.1z"/>
<ellipse class="st4" cx="719.6" cy="703.9" rx="41.1" ry="9.3"/>
<path class="st4" d="M696.3,688.1l-3.9-2.2c0,0-1.8,7.6-1.2,13.1c0.1,1.1,0.9,2.1,2,2.3c9,2.2,51.8,11.7,81.3-1.7
	c0.9-0.4,1.5-1.2,1.6-2.2c0.4-3.3-0.9-10.2-1.4-11.6C773.5,683.1,696.3,688.1,696.3,688.1z"/>
<path class="st5" d="M696.3,688.1l-3.9-2.2c0,0-1.8,7.6-1.2,13.1c0.1,1.1,0.9,2.1,2,2.3c9,2.2,51.8,11.7,81.3-1.7
	c0.9-0.4,1.5-1.2,1.6-2.2c0.4-3.3-0.9-10.2-1.4-11.6C773.5,683.1,696.3,688.1,696.3,688.1z"/>
<ellipse class="st4" cx="733.5" cy="686" rx="41.1" ry="9.3"/>
<path class="st4" d="M680.9,669.4l-3.9-2.2c0,0-1.8,7.6-1.2,13.1c0.1,1.1,0.9,2.1,2,2.3c9,2.2,51.8,11.7,81.3-1.7
	c0.9-0.4,1.5-1.2,1.6-2.2c0.4-3.3-0.9-10.2-1.4-11.6C758.1,664.4,680.9,669.4,680.9,669.4z"/>
<path class="st5" d="M680.9,669.4l-3.9-2.2c0,0-1.8,7.6-1.2,13.1c0.1,1.1,0.9,2.1,2,2.3c9,2.2,51.8,11.7,81.3-1.7
	c0.9-0.4,1.5-1.2,1.6-2.2c0.4-3.3-0.9-10.2-1.4-11.6C758.1,664.4,680.9,669.4,680.9,669.4z"/>
<ellipse class="st4" cx="718.1" cy="667.3" rx="41.1" ry="9.3"/>
<path class="st4" d="M715.5,654.4l-3.9-2.2c0,0-1.8,7.6-1.2,13.1c0.1,1.1,0.9,2.1,2,2.3c9,2.2,51.8,11.7,81.3-1.7
	c0.9-0.4,1.5-1.2,1.6-2.2c0.4-3.3-0.9-10.2-1.4-11.6C792.7,649.4,715.5,654.4,715.5,654.4z"/>
<path class="st5" d="M715.5,654.4l-3.9-2.2c0,0-1.8,7.6-1.2,13.1c0.1,1.1,0.9,2.1,2,2.3c9,2.2,51.8,11.7,81.3-1.7
	c0.9-0.4,1.5-1.2,1.6-2.2c0.4-3.3-0.9-10.2-1.4-11.6C792.7,649.4,715.5,654.4,715.5,654.4z"/>
<ellipse class="st4" cx="752.7" cy="652.2" rx="41.1" ry="9.3"/>
<path class="st4" d="M692.1,644.3l-3.9-2.2c0,0-1.8,7.6-1.2,13.1c0.1,1.1,0.9,2.1,2,2.3c9,2.2,51.8,11.7,81.3-1.7
	c0.9-0.4,1.5-1.2,1.6-2.2c0.4-3.3-0.9-10.2-1.4-11.6C769.3,639.3,692.1,644.3,692.1,644.3z"/>
<path class="st5" d="M692.1,644.3l-3.9-2.2c0,0-1.8,7.6-1.2,13.1c0.1,1.1,0.9,2.1,2,2.3c9,2.2,51.8,11.7,81.3-1.7
	c0.9-0.4,1.5-1.2,1.6-2.2c0.4-3.3-0.9-10.2-1.4-11.6C769.3,639.3,692.1,644.3,692.1,644.3z"/>
<ellipse class="st4" cx="729.3" cy="642.2" rx="41.1" ry="9.3"/>
<path class="st4" d="M707.7,624.9l-3.9-2.2c0,0-1.8,7.6-1.2,13.1c0.1,1.1,0.9,2.1,2,2.3c9,2.2,51.8,11.7,81.3-1.7
	c0.9-0.4,1.5-1.2,1.6-2.2c0.4-3.3-0.9-10.2-1.4-11.6C784.9,619.8,707.7,624.9,707.7,624.9z"/>
<path class="st5" d="M707.7,624.9l-3.9-2.2c0,0-1.8,7.6-1.2,13.1c0.1,1.1,0.9,2.1,2,2.3c9,2.2,51.8,11.7,81.3-1.7
	c0.9-0.4,1.5-1.2,1.6-2.2c0.4-3.3-0.9-10.2-1.4-11.6C784.9,619.8,707.7,624.9,707.7,624.9z"/>
<ellipse class="st4" cx="744.9" cy="622.7" rx="41.1" ry="9.3"/>
<path class="st4" d="M715.4,601.7l-3.9-2.2c0,0-1.8,7.6-1.2,13.1c0.1,1.1,0.9,2.1,2,2.3c9,2.2,51.8,11.7,81.3-1.7
	c0.9-0.4,1.5-1.2,1.6-2.2c0.4-3.3-0.9-10.2-1.4-11.6C792.6,596.7,715.4,601.7,715.4,601.7z"/>
<path class="st5" d="M715.4,601.7l-3.9-2.2c0,0-1.8,7.6-1.2,13.1c0.1,1.1,0.9,2.1,2,2.3c9,2.2,51.8,11.7,81.3-1.7
	c0.9-0.4,1.5-1.2,1.6-2.2c0.4-3.3-0.9-10.2-1.4-11.6C792.6,596.7,715.4,601.7,715.4,601.7z"/>
<ellipse class="st4" cx="752.6" cy="599.6" rx="41.1" ry="9.3"/>
<linearGradient id="SVGID_1_" gradientUnits="userSpaceOnUse" x1="882.0176" y1="-26.637" x2="882.0176" y2="477.4031" gradientTransform="matrix(1 0 0 -1 -41 755.4097)">
	<stop  offset="0" style="stop-color:#808080;stop-opacity:0.25"/>
	<stop  offset="0.5351" style="stop-color:#808080;stop-opacity:0.12"/>
	<stop  offset="1" style="stop-color:#808080;stop-opacity:0.1"/>
</linearGradient>
<path class="st6" d="M963.2,760.6c-5.7-0.2-5.9-2.4-13.3-6.3c-4.2-2.2-10.5-8.4-15.2-13.5c-0.4-0.4-0.7-0.8-1.1-1.2
	c1.2,0,1.9,0,1.9,0s-1.8-16.1-0.2-20s0.4-26.6,0.4-26.6s1-17.3-0.8-21.4s0.6-29.8,0.6-29.8s1.6-15.3,2-46.6s-18-32.3-18-32.3
	s-2.5-0.2-6.2-0.5c-0.4,0-0.7-0.1-1.1-0.1c2.4-5,3.8-8.8,3.8-8.8s-3.1-29.2-3.9-34.3c-0.8-5-5.7-25.8-5.7-25.8s-3.5-8.9-5.5-15.1
	s-8.2-13.5-8.2-13.5s-11-21.8-14.1-25c-1.4-1.5-3.4-3.4-5.1-5c-0.3-0.3-0.6-0.6-0.9-0.8c0.5-2.3,0.7-4.6,0.7-6.9
	c0,0-11.4-11.3-12.3-14.1s-11.6-13.3-11.6-13.3s-6.1-11.3-13.1-11.5c-3.3-0.2-6.6-0.1-9.8,0.3c1.4-5.3,3.1-10.8,4.6-15.6
	c0.2-0.5,0.3-1,0.5-1.6c5.6-3.8,9.9-9,12.6-15.2c0.1-0.3,0.3-0.7,0.4-1c0.1,0,0.1,0,0.2,0c0.3,0,0.6,0,0.9-0.1c2.3-0.4,4.2-3,3.2-5
	c0.1,0.2,0.4,0.4,0.7,0.4c0.8,0,1.7-1.1,1.9-2.1c0-0.2,0-0.3,0.1-0.5c0-0.2,0.1-0.4,0.1-0.6c0-0.2,0-0.4,0.1-0.6c0-0.2,0-0.4,0-0.6
	c0-0.2,0-0.4,0-0.6c0-0.2,0-0.4,0-0.7c0-0.2,0-0.4,0-0.5c0-0.3,0-0.5-0.1-0.8c0-0.1,0-0.2,0-0.3l0,0c-0.1-1.1-0.3-2.2-0.7-3.3
	c-1.1-3.7-3.5-7.5-2.6-11.3c0,0,0-0.1,0-0.1l0,0c0.8-3,3.3-5.1,4.9-7.7c0.1-0.3,0.3-0.5,0.4-0.8c0,0,0.1-0.1,0.1-0.1
	c0.1-0.2,0.2-0.4,0.3-0.6c0.1-0.1,0.1-0.3,0.2-0.4c0.1-0.2,0.1-0.4,0.2-0.5c0.1-0.2,0.1-0.3,0.2-0.5c0-0.2,0.1-0.3,0.1-0.5
	c0-0.2,0.1-0.4,0.1-0.6c0-0.1,0-0.3,0.1-0.4c0-0.2,0.1-0.4,0.1-0.7c0-0.1,0-0.2,0-0.4c0-0.2,0-0.5,0-0.7c0-0.1,0-0.2,0-0.3
	c0-0.3,0-0.5,0-0.8c0-0.1,0-0.2,0-0.2c0-0.3-0.1-0.6-0.1-0.9c0,0,0-0.1,0-0.1l0,0c-0.3-2.5-1.4-4.9-2.9-7c-3.6-4.3-9.1-6.7-14.7-6.4
	c-1.5,0.2-3.1,0.2-4.6,0.1c-2.6-0.4-4.7-2-6.8-3.6c-5.7-4.4-11.4-8.8-17.1-13.2c-1.9-1.7-4.1-3-6.5-3.8c-2.4-0.7-5.3-0.5-7.1,1.3
	c-3.2,3.2-1.2,8.6-2.5,12.9c-1.1,3.7-4.7,6.2-8.4,7.5s-7.7,1.5-11.5,2.4c-1.1,0.2-2.2,0.7-3.1,1.4c-1,1.2-1.5,2.7-1.3,4.3
	c0,3.8,0.9,7.5,2.7,10.9c0.7,1.4,1.6,2.8,2.4,4.2c0.1,0.1,0.1,0.2,0.2,0.3c0.1,0.2,0.2,0.3,0.3,0.5c0.1,0.3,0.3,0.5,0.4,0.8
	c0.1,0.1,0.1,0.2,0.1,0.3c0.1,0.2,0.2,0.4,0.2,0.6c0,0.1,0.1,0.2,0.1,0.4c0.1,0.2,0.1,0.4,0.2,0.7c0.4,1.3,0.4,2.7,0.1,4
	c-0.6,2.2-2.3,3.8-3.8,5.5c-1.2,1.3-2.1,2.9-2.5,4.7l0,0c-0.1,0.4-0.1,0.8,0,1.2c0,0.1,0,0.1,0,0.2c0,0.1,0,0.2,0.1,0.3
	c0,0.1,0,0.1,0.1,0.2c0,0.1,0.1,0.1,0.1,0.2c0.1,0.1,0.2,0.2,0.3,0.3c0,0,0.1,0.1,0.1,0.1c0.1,0.1,0.2,0.1,0.3,0.2
	c0.1,0,0.1,0.1,0.2,0.1c0.1,0.1,0.3,0.1,0.4,0.1c0,0,0.1,0,0.1,0c0.2,0,0.4,0,0.7,0c0.1,0,0.1,0,0.2,0c0.2,0,0.4,0,0.6-0.1
	c0.1,0,0.2,0,0.2,0c0.3-0.1,0.6-0.1,1-0.2c1.1-0.3,2.3-0.8,3.3-1.3c0,0.1,0,0.2,0,0.4c0,0.2,0,0.4,0,0.6c0.1,4,0.8,7.9,2.2,11.6
	c2.2,5.8,5.9,10.8,10.7,14.7c-0.1,0.3-0.1,0.7-0.2,1c-1,4.8-3,9.7-4.3,9.3c-1.2-0.3-2.5-0.4-3.8-0.4c-0.4,0-0.8,0-1.1,0l0,0
	c-1.2-0.1-2.3-0.1-3.5,0c-0.5,0-1,0-1.5-0.2c-3.3-1-6.8-1.2-10.2-0.6c-7.1,1.4-17.8,4.1-20.8,7.3c-4.5,4.8-11,9.5-18.4,29.6
	c0,0-3.7,12.3-6.5,13.9c0.6-0.3,1.3-0.6,1.9-0.9c-0.4,0.7-0.9,1.2-1.5,1.7c1-0.5,2.1-1,3.2-1.3c-2.2,13.1,1.1,50.7,1.1,50.7
	s-2.7,6.5,0.8,10.3c2.1,2.3,3.2,5.8,3.8,8.3c-0.2,0.3-0.3,0.5-0.5,0.8v0c-1.8,2.9-4.3,6.6-5.9,8.6c-2.9,3.6-2,15.1-2,15.1
	s-0.6,5.4-2.7,7.5s-1.6,9.5-1.6,9.5l-5.3,19.6c0,0-4.9,4.4-4.9,6.5s-3.9,7.7-3.9,7.7s-5.9,9.7,0,8.3c2.2-0.6,4.2-1.7,6-3l0,0.1
	c0,0.4,0,0.7,0,1.1c-0.2,10.5,1,25.4,8.8,25.4c12.1,0,43.1,14.3,43.1,14.3c6.3,4.8,14.9,3.2,14.9,3.2S759,638,759.4,644.3
	s-8.6,16.5-8.6,16.5l-27.8,54.2c0.2,3.8,0.8,7.5,2,11.1c-0.1,0.1-0.3,0.2-0.4,0.3c-10.7,9.8-11.6,29.1-11.6,29.1l-2.5,9.9l37.2,16.3
	c0,0,48.2,1,56.6-1.2s6.5-11.5-4.5-13.3s-13.7-6.7-17.4-8.9c-2.5-1.5-11.3-11.2-16.8-17.3c-0.1-0.1-0.2-0.2-0.2-0.3l1.3-7
	c2.5-1.2,6.1-13.3,6.1-13.3s0-4.8,2.5-6.3s7.6-15.9,7.6-15.9s11-18.4,10.4-20.8s8-14.7,8-14.7s14.5-14.1,13.9-16.6
	s11.6-15.4,11.6-15.4c4.4-3.4,8.1-7.6,10.9-12.5c1.1-0.2,2.3-0.4,3.5-0.6c16-2.6,42.7-7.4,45.7-8.7c4.1-1.8,3.3,6.3,1.6,13.1
	s-2.9,39.7-1,44s1,11.1,1,11.1l-2.5,36.9l1.6,7.9c0,0-5.5,4.4-3.3,7.1s0.2,13.9,0.2,13.9c0.2-0.1,0.4-0.1,0.7-0.2
	c-0.2,0.4-0.4,0.9-0.6,1.4c-3.2,9-1.4,23.8-1.4,23.8v11.7c0,0,56.6,1,69.1,1s29.6-6,30.7-10.9S968.9,760.8,963.2,760.6z
	 M802.2,550.7l-3.7,0.3C799.7,550.8,800.9,550.7,802.2,550.7z M824.8,395.9c0.5-2.3,1.1-4.8,1.8-7.4L824.8,395.9z M831.8,556.4
	c-3.5,1.4-7.5,1.4-11,0l0,0c0,0,0.2-14.1,1.8-20s3.9-16.5,3.9-16.5s1.8-14.7,3.7-21.4s9-43.8,12.7-46.2s5.7,1.8,5.7,1.8
	s0.5,0,1.5-0.1c0.2,0.4,0.4,0.8,0.6,1.2c4.4,8.8,17.2,26.9,17.2,26.9c3.8,2.3,7,5.5,9.4,9.3c3.5,5.8,4.5,19.6,4.5,19.6
	s7.8,30.5,11.4,34.7c1.8,2.1,1,3.4-0.3,4.1c-2.6,1.4-4.8,3.5-6.4,6c-0.5,0.8-1.1,1.7-1.6,2.7c-1.4-0.3-2.7-0.7-3.7-1
	C871,554.1,837.3,553.9,831.8,556.4L831.8,556.4z"/>
<path class="st7" d="M882.1,768v11.6c0,0,55.4,1,67.6,1s29-6,30-10.8s-14-8.8-19.6-9s-5.8-2.4-13-6.2c-4.1-2.1-10.2-8.4-14.8-13.4
	c-3.5-3.9-6.2-7-6.2-7s-29.8-0.6-38.4,4.2c-2,1.1-3.3,3.3-4.3,6C880.4,753.3,882.1,768,882.1,768z"/>
<path class="st5" d="M883.5,744.4c6.2-2.2,42.8-3,48.8-3.1c-3.5-3.9-6.2-7-6.2-7s-29.8-0.6-38.4,4.2
	C885.8,739.5,884.4,741.7,883.5,744.4z"/>
<path class="st8" d="M722.8,559.4c0,0,1.2,0.7,3.2,2c0.4,0.2,0.8,0.5,1.2,0.7c1.3,0.8,2.9,1.7,4.7,2.8
	c25.1,15.1,93.7,56.2,97.4,55.9c1-0.1,3.9-0.5,8-1.2c1.1-0.2,2.2-0.4,3.5-0.6c15.7-2.6,41.8-7.3,44.7-8.6c4-1.8,3.2,6.2,1.6,13
	s-2.8,39.4-1,43.6s1,11,1,11l-2.4,36.6l1.6,7.8c0,0-5.4,4.4-3.2,7s0.2,13.8,0.2,13.8c6.4-2.4,49.8-3.2,49.8-3.2s-1.8-16-0.2-19.8
	s0.4-26.4,0.4-26.4s1-17.2-0.8-21.2s0.6-29.6,0.6-29.6s1.6-15.2,2-46.2s-17.6-32-17.6-32s-2.4-0.2-6-0.5c-7.1-0.7-19-2-26.9-3.7
	c-1.6-0.3-3.2-0.8-4.8-1.3c-9.8-3.3-42.8-3.5-48.2-1.1c-3.5,1.4-7.3,1.4-10.8,0l0,0l-4.2-6.8l-40.1,3.4l-4.3,0.4l-39.5,3.4l-2.7,0.2
	L722.8,559.4z"/>
<path class="st5" d="M883.5,590.1c11.7,5.7,22.8-14.5,28-25.8c-7.1-0.7-19-2-26.9-3.7C879.3,569.4,872.4,584.7,883.5,590.1z"/>
<path class="st9" d="M848.6,454.1c0.2,1.4,0.7,2.7,1.4,3.9c4.3,8.7,16.8,26.7,16.8,26.7c3.7,2.3,6.9,5.5,9.2,9.2
	c3.4,5.8,4.4,19.4,4.4,19.4s7.6,30.2,11.2,34.4c1.8,2.1,1,3.4-0.2,4.1c-2.6,1.4-4.7,3.4-6.3,5.9c-5.2,8.4-13.6,25.2-1.8,30.9
	c16,7.8,31-33.1,31-33.1s-3-29-3.8-34s-5.6-25.6-5.6-25.6s-3.4-8.8-5.4-15s-8-13.4-8-13.4s-10.8-21.6-13.8-24.8
	c-1.4-1.5-3.3-3.4-5-4.9c-2-1.8-3.6-3.3-3.6-3.3S848.4,449.3,848.6,454.1z"/>
<path class="st7" d="M713,765.6l36.4,16.2c0,0,47.2,1,55.4-1.2s6.4-11.4-4.4-13.2s-13.4-6.6-17-8.8c-2.4-1.5-11.1-11.1-16.4-17.2
	c-2.6-2.9-4.4-5-4.4-5s-7-18.6-26.4-14.4c-3.5,0.8-6.8,2.5-9.4,5c-10.5,9.7-11.4,28.8-11.4,28.8L713,765.6z"/>
<path class="st5" d="M727.2,562.1c1.3,0.8,2.9,1.7,4.7,2.8c25.1,15.1,93.7,56.2,97.4,55.9c1-0.1,3.9-0.5,8-1.2
	c1.1-0.2,2.2-0.4,3.5-0.6c0-0.1,0.1-0.2,0.1-0.2c2-3.5,3.6-7.3,4.6-11.2c4.2-16-16.6-28.2-16.6-28.2l-4.4-3.4
	c-5-8.4-41-16.4-41-16.4l-4.6-3.1l-2.5-1.7l-0.7-0.4l-5.6-3.8l-28.2,2l-8.4,5.4l-0.9,0.6l-3.1,2L727.2,562.1z"/>
<path class="st5" d="M726.7,727c7.7,26.5,39.6,17.8,39.6,17.8l0.6-3.4c-2.6-2.9-4.4-5-4.4-5s-7-18.6-26.4-14.4
	C732.6,722.8,729.4,724.5,726.7,727z"/>
<path class="st8" d="M718.4,606.8c11.8,0,42.2,14.2,42.2,14.2c6.2,4.8,14.6,3.2,14.6,3.2s-14.8,15-14.4,21.2s-8.4,16.4-8.4,16.4
	l-27.2,53.8c2,38.2,41.2,27.6,41.2,27.6l1.6-9c2.4-1.2,6-13.2,6-13.2s0-4.8,2.4-6.2s7.4-15.8,7.4-15.8s10.8-18.2,10.2-20.6
	s7.8-14.6,7.8-14.6s14.2-14,13.6-16.5s11.4-15.3,11.4-15.3c4.3-3.4,8-7.6,10.6-12.4c2-3.5,3.6-7.3,4.6-11.2
	c3.4-12.9-9.4-23.3-14.6-26.9c-1.2-0.9-2-1.3-2-1.3l-4.4-3.4c-2.3-3.8-11-7.6-19.8-10.5c-6.3-2.1-12.7-3.8-16.8-4.8
	c-2.7-0.7-4.4-1-4.4-1l-4.6-3.1l-1.6-1.1l-1.5-1l-5.6-3.8l-12.5,0.9l-15.6,1.1l-8.4,5.4l-4,2.6l-15.6,10c0,0-0.4,3.8-0.5,9
	c0,0.4,0,0.8,0,1.2C709.6,592.1,710.8,606.8,718.4,606.8z"/>
<path class="st9" d="M778.6,382.9l4.2,15c0,0,7.4,25.8,8.2,27.6s20.2,20,21,20.4s11.4,6.4,11.4,6.4s0.8-33,0-42.6
	c-0.1-2.1,0.1-4.2,0.5-6.3c1.3-7.5,4.5-18.6,7.2-27c2.2-7.1,4.1-12.5,4.1-12.5s-46.8-2-45.2,2.6c0.6,1.7,0.4,4.6-0.2,7.6
	c-1,4.8-3,9.6-4.2,9.2c-1.2-0.3-2.5-0.4-3.7-0.4C780.1,382.8,778.6,382.9,778.6,382.9z"/>
<path class="st5" d="M789.8,374c11.7,9.8,28.5,10.7,41.3,2.3c2.2-7.1,4.1-12.5,4.1-12.5s-46.8-2-45.2,2.6
	C790.6,368.2,790.4,371.1,789.8,374z"/>
<path class="st9" d="M846.6,346.3c0,3.7-0.6,7.3-1.7,10.8c-0.3,0.9-0.6,1.8-1,2.6c-7.4,17.6-27.7,25.8-45.3,18.4
	c-8.8-3.7-15.6-10.8-18.9-19.8c-1.4-3.7-2.1-7.6-2.2-11.5c0-0.2,0-0.4,0-0.6c0-19.1,15.5-34.6,34.6-34.6S846.6,327.2,846.6,346.3
	L846.6,346.3z"/>
<path class="st5" d="M778.6,382.9l4.2,15c0,0,7.4,25.8,8.2,27.6s20.2,20,21,20.4s11.4,6.4,11.4,6.4s0.8-33,0-42.6
	c-0.1-2.1,0.1-4.2,0.5-6.3l-2.7,11.1l0.2,22.2l1.6,1.2l-3.6,5.4v-4c0,0-12.8-12.4-14.8-17.6s-9.2-14.6-9.2-14.6s-8.2-13.8-8.4-16.2
	c-0.2-1.9-3.6-6.2-5.1-8C780.1,382.8,778.6,382.9,778.6,382.9z"/>
<path class="st5" d="M848.6,454.1c0.2,1.4,0.7,2.7,1.4,3.9c4.4-0.4,19.3-3.2,22.5-20.2c-2-1.8-3.6-3.3-3.6-3.3
	S848.4,449.3,848.6,454.1z"/>
<path class="st5" d="M709.8,581.7c4-2.9,7.9-6.8,10.2-7.8c3.4-1.6,8.6-6.8,8.6-6.8s1.3-0.9,3.3-2.1c3.7-2.2,9.8-5.3,14.5-5.7
	c4.2-0.3,18-1.2,29-1.9c7.9-0.5,14.2-0.9,14.2-0.9s13-4.6,18.6-1.6c4,2,8.2,3.6,12.6,4.6c0,0,0-0.4,0-1.2l0,0l-4.2-6.8l-44.4,3.8
	l-5.6-3.8l-28.2,2l-8.4,5.4l-7.2,0.6c0,0,1.2,0.7,3.2,2l-15.6,10C710.4,571.4,709.9,575.9,709.8,581.7z"/>
<path class="st7" d="M704,583.4c2.1-0.6,4.1-1.6,5.9-3v0c4-2.9,7.9-6.7,10.1-7.8c3.4-1.6,8.6-6.8,8.6-6.8s10.6-7.2,17.8-7.8
	c2-0.2,6.1-0.4,11-0.8c5-0.3,11-0.7,16.3-1c3.1-0.2,6-0.4,8.5-0.5c4.4-0.3,7.4-0.5,7.4-0.5s13-4.6,18.6-1.6c4,2,8.2,3.6,12.6,4.6
	c0,0,0.2-14,1.8-19.8s3.8-16.4,3.8-16.4s1.8-14.6,3.6-21.2s8.8-43.4,12.4-45.8s5.6,1.8,5.6,1.8s24-0.4,24.4-26.8
	c0,0-11.2-11.2-12-14S849,402.9,849,402.9s-6-11.2-12.8-11.4c-3.2-0.2-6.4-0.1-9.6,0.3l-5.8,23.5l0.2,22.2l1.6,1.2l-3.6,5.4v-4
	c0,0-12.8-12.4-14.8-17.6s-9.2-14.6-9.2-14.6s-8.2-13.8-8.4-16.2s-5.8-8.8-5.8-8.8c-1.1-0.1-2.3-0.1-3.4,0c-0.5,0-1,0-1.5-0.2
	c-3.2-1-6.7-1.2-10-0.6c-6.9,1.4-17.4,4.1-20.3,7.2c-4.4,4.8-10.8,9.4-18,29.4l38.8,14L763,439l-30.9,58.7c0,0-1,1.7-2.4,3.8v0
	c-1.8,2.8-4.2,6.5-5.8,8.5c-2.8,3.6-2,15-2,15s-0.6,5.4-2.6,7.4s-1.6,9.4-1.6,9.4l-5.2,19.4c0,0-4.8,4.4-4.8,6.4s-3.8,7.6-3.8,7.6
	S698.2,584.8,704,583.4z"/>
<path class="st5" d="M908.7,597.8c0,0-12.6,4.2-16,10.2S908.7,597.8,908.7,597.8z"/>
<path class="st5" d="M902.3,584.6c-0.4,0.6-17.3,17.5-16.2,21.6S902.3,584.6,902.3,584.6z"/>
<path class="st5" d="M809.8,596.6c0,0-18.8,8.9-20.4,12.7S809.8,596.6,809.8,596.6z"/>
<path class="st5" d="M808.6,608c0,0-17,7.2-19.3,9S808.6,608,808.6,608z"/>
<path class="st5" d="M800.8,623.4c0,0-7.5,5.6-11.7,1.2S800.8,623.4,800.8,623.4z"/>
<path class="st5" d="M829,477.5c-0.4,0.6-25.4,45.6-32,49S829,477.5,829,477.5z"/>
<path class="st5" d="M827.8,494.5c0,1-24.4,53.2-28.4,53.8S827.8,494.5,827.8,494.5z"/>
<path class="st5" d="M735,528.1c0,0-11.8,25.2-16.4,26.6S735,528.1,735,528.1z"/>
<path class="st5" d="M733,516.9c0,0-4.1,8.8-6.5,8.8S733,516.9,733,516.9z"/>
<path class="st5" d="M846.6,346.3c0,3.7-0.6,7.3-1.7,10.8c-0.3,0.9-0.6,1.8-1,2.6c-1.8-0.3-3.4-1-4.9-2.1c-1.5-1-2.7-2.3-3.6-3.9
	c-0.7-1.6-1.3-3.3-1.8-5c-1.6-3.9-5.3-6.7-9.5-7.2c1.1,2-0.7,4.6-2.9,5c-2.2,0.3-4.4-1-6-2.7s-2.7-3.7-4.2-5.4c-1.5-1.7-3.7-3-6-2.7
	c-2,0.3-3.5,1.8-5.2,3c-1.7,1.1-4,1.9-5.6,0.7c-0.9-0.7-1.3-1.8-2.2-2.5c-2.2-1.9-5.6,0.1-7.3,2.5c-2.5,3.7-4,5.9-7.3,7.6
	c0-0.2,0-0.4,0-0.6c0-19.1,15.5-34.6,34.6-34.6S846.6,327.2,846.6,346.3L846.6,346.3z"/>
<path class="st7" d="M784.7,338.3c1.6-2.4,5.1-4.3,7.3-2.4c0.9,0.7,1.3,1.9,2.2,2.5c1.6,1.2,3.9,0.5,5.6-0.7s3.2-2.6,5.2-2.9
	c2.3-0.3,4.4,1,6,2.7s2.7,3.7,4.2,5.4s3.7,3,6,2.7s4.1-3,2.9-5c4.2,0.5,7.9,3.2,9.5,7.2c0.5,1.7,1.1,3.4,1.8,5
	c0.9,1.5,2.1,2.9,3.6,3.9c1.8,1.3,4.1,2.5,6.3,2.1s4.1-3,3.1-5c0.7,1.1,2.3-0.4,2.5-1.7c0.5-2.8,0.3-5.7-0.5-8.4
	c-1.1-3.7-3.4-7.4-2.5-11.2c0.7-3,3.3-5.1,4.8-7.8c2.7-4.7,2-11-1.3-15.3c-3.5-4.3-8.9-6.6-14.4-6.3c-1.5,0.2-3,0.2-4.5,0.1
	c-2.5-0.4-4.6-2-6.6-3.6l-16.8-13.1c-1.9-1.6-4-2.9-6.3-3.8c-2.4-0.7-5.2-0.5-7,1.3c-3.1,3.1-1.1,8.5-2.4,12.8
	c-1.1,3.7-4.6,6.2-8.2,7.4s-7.5,1.5-11.3,2.4c-1.1,0.2-2.2,0.7-3,1.4c-1,1.2-1.4,2.7-1.3,4.3c0,3.8,0.9,7.5,2.6,10.8
	c1.9,3.7,5,7.6,3.9,11.6c-0.6,2.1-2.2,3.8-3.7,5.5c-3.2,3.6-4.2,9,1.7,7.1C779.8,345.4,781.5,343.1,784.7,338.3z"/>
<g class="st10">
	<path d="M850.9,348.1c-0.2,1.3-1.8,2.8-2.5,1.7c1,2-0.9,4.6-3.1,5s-4.5-0.7-6.3-2.1c-1.5-1-2.7-2.3-3.6-3.9c-0.7-1.6-1.3-3.3-1.8-5
		c-1.6-3.9-5.3-6.7-9.5-7.2c1.2,2-0.7,4.7-2.9,5s-4.4-1-6-2.7s-2.7-3.7-4.2-5.4s-3.7-3-6-2.7c-2,0.3-3.5,1.8-5.2,2.9s-4,1.9-5.6,0.7
		c-0.9-0.7-1.3-1.8-2.2-2.5c-2.2-1.9-5.7,0.1-7.3,2.4c-3.2,4.8-4.8,7.1-10.6,8.9c-1.9,0.6-3.1,0.5-3.7-0.1c-1.3,2.9-0.7,5.4,3.7,4.1
		c5.7-1.8,7.3-4.2,10.6-8.9c1.6-2.4,5.1-4.3,7.3-2.4c0.9,0.7,1.3,1.9,2.2,2.5c1.6,1.2,3.9,0.5,5.6-0.7s3.2-2.6,5.2-2.9
		c2.3-0.3,4.4,1,6,2.7s2.7,3.7,4.2,5.4s3.7,3,6,2.7s4.1-3,2.9-5c4.2,0.5,7.9,3.2,9.5,7.2c0.5,1.7,1.1,3.4,1.8,5
		c0.9,1.5,2.1,2.9,3.6,3.9c1.8,1.3,4.1,2.5,6.3,2.1s4.1-3,3.1-5c0.7,1.1,2.3-0.4,2.5-1.7c0.3-1.7,0.4-3.5,0.2-5.2
		C851,347.2,850.9,347.6,850.9,348.1z"/>
	<path d="M776,330.8c0-0.1,0-0.1,0.1-0.2c1.1-4.1-2-7.9-3.9-11.6c-1.4-2.6-2.2-5.5-2.5-8.4c-0.1,0.5-0.1,1-0.1,1.6
		c0,3.8,0.9,7.5,2.6,10.8C773.5,325.5,775.3,328.1,776,330.8z"/>
	<path d="M852.7,320.7c-1.5,2.7-4.1,4.8-4.8,7.8c-0.3,1.3-0.3,2.6,0,3.8c0.7-2.9,3.2-5.1,4.8-7.7c1.4-2.6,2-5.5,1.5-8.4
		C854,317.7,853.5,319.3,852.7,320.7z"/>
</g>
<path class="st5" d="M729.8,501.5L729.8,501.5c0.3,1.1,0.5,2.2,0.6,3.4c0,0,15.8,37,17.8,39.2c0.6,0.7,2.9,4,5.9,8.3
	c1.1,1.5,2.2,3.2,3.3,4.9c6,9,12.8,19.2,12.8,19.2l14.8,13c0,0,32.2,2.6,42.4-7.9c-1.2-0.9-2-1.3-2-1.3l-4.4-3.4
	c-2.3-3.8-11-7.6-19.8-10.5c-8.1,0.1-14.7,0.7-14.7,0.7l-2.1-5.6l-2.2-5.8L771,526.3c0,0-7.2-37.2-9.6-39s-1.8-7.4-1.8-7.4
	s4.4-15.8,2.8-18s2.6-18.4,2.6-18.4c-0.4-1.6-1.1-3.1-1.9-4.5l-30.9,58.7C732.2,497.7,731.1,499.3,729.8,501.5z"/>
<path class="st9" d="M765.4,442.3c0,0-4.2,16.2-2.6,18.4s-2.8,18-2.8,18s-0.6,5.6,1.8,7.4s9.6,39,9.6,39l15.5,40.8
	c0,0,48.5-4.8,43.5,10.4s-45,12-45,12l-14.8-13c0,0-20-30.2-22-32.4s-17.8-39.2-17.8-39.2s-0.8-7.4-4.2-11.2s-0.8-10.2-0.8-10.2
	s-4.2-48.4,0.2-54.2S760.8,424.9,765.4,442.3z"/>
<path class="st5" d="M740.6,411.9l-12.6,7.6c0,0-3.6,12.2-6.4,13.8c0,0,25.2-14,44.2,18.2c0,0-0.6-4.2,2-6.2s2-10.6,2-10.6
	c0.7-1.4,1.3-2.8,1.8-4.2C773.4,426.1,764,400.9,740.6,411.9z"/>
<path class="st7" d="M740.2,411.1l-12.6,7.6c0,0-3.6,12.2-6.4,13.8c0,0,25.2-14,44.2,18.2c0,0-0.6-4.2,2-6.2s2-10.6,2-10.6
	c0.7-1.4,1.3-2.8,1.8-4.2C773,425.3,763.6,400.1,740.2,411.1z"/>
<ellipse class="st4" cx="627.9" cy="721.4" rx="37.6" ry="39.9"/>
<ellipse class="st5" cx="627.9" cy="721.4" rx="37.6" ry="39.9"/>
<ellipse class="st4" cx="634.4" cy="722.3" rx="37.6" ry="39"/>
<ellipse class="st2" cx="90.1" cy="735.5" rx="46.4" ry="7.8"/>
<path class="st2" d="M109.3,722.6c2-1.8,3.9-4,4.4-6.7s-0.6-5.8-3.1-6.8c-2.8-1.1-5.9,0.9-8.2,2.9s-4.9,4.3-7.9,3.8
	c3.1-2.9,4.6-7.2,3.7-11.3c-0.1-0.8-0.5-1.6-1-2.3c-1.6-1.7-4.4-1-6.3,0.4c-6,4.2-7.7,12.4-7.7,19.7c-0.6-2.6-0.1-5.4-0.1-8.1
	s-0.8-5.7-3-7.2c-1.4-0.8-3-1.1-4.6-1.1c-2.7-0.1-5.7,0.2-7.5,2.1c-2.3,2.5-1.7,6.6,0.3,9.3s5,4.4,7.8,6.3c2.2,1.3,4.1,3.2,5.6,5.3
	c0.2,0.3,0.3,0.6,0.4,1h16.9C102.7,727.9,106.2,725.5,109.3,722.6z"/>
<path class="st2" d="M509.6,684.3c2.1,2.8,3.8,5.9,5,9.2c0.3,0.8,0.7,1.7,1,2.7c5,14.9-2.9,32.8-5.2,30.9s-9.3-5.5-10.7-0.5
	s-6.4,10.2-6.4,10.2c-9.2,9.2-17.5-0.7-22.9-11.1c-1.8-3.4-3.4-6.9-4.7-10.5c-1.2-3.2-1.9-5.4-1.9-5.4l38.2-32.6
	C502,677.3,505.7,679,509.6,684.3z"/>
<path class="st2" d="M449.4,705.2c2.1,2.8,3.8,5.9,5,9.2c0.3,0.8,0.7,1.7,1,2.7c5,14.9-2.9,32.8-5.2,30.9s-9.3-5.5-10.7-0.5
	s-6.4,10.2-6.4,10.2c-9.2,9.2-17.5-0.7-22.9-11.1c-1.8-3.4-3.4-6.9-4.7-10.5c-1.2-3.2-1.9-5.4-1.9-5.4l38.2-32.6
	C441.7,698.2,445.4,699.9,449.4,705.2z"/>
<path class="st2" d="M328.4,734c-0.2,3.5-0.9,7-2,10.3c-0.3,0.9-0.6,1.8-0.9,2.7c-5.7,14.7-23.2,23.4-23.7,20.5s-3.7-10.2-7.9-7.2
	s-11.4,3.8-11.4,3.8c-13,1.2-13-11.7-10.6-23.2c0.8-3.8,1.8-7.5,3-11.1c1.1-3.2,1.9-5.3,1.9-5.3l50.2-0.7
	C327,723.7,328.7,727.4,328.4,734z"/>
<path class="st2" d="M263.5,717.6c-0.2,3.5-0.9,7-2,10.3c-0.3,0.9-0.6,1.8-0.9,2.7c-5.7,14.7-23.2,23.4-23.7,20.5s-3.7-10.2-7.9-7.2
	s-11.4,3.8-11.4,3.8c-13,1.2-13-11.7-10.6-23.2c0.8-3.8,1.8-7.5,3-11.1c1.1-3.2,1.9-5.3,1.9-5.3l50.2-0.7
	C262.1,707.3,263.8,711,263.5,717.6z"/>
<path class="st11" d="M509.6,684.3c2.1,2.8,3.8,5.9,5,9.2c0.3,0.8,0.7,1.7,1,2.7c5,14.9-2.9,32.8-5.2,30.9s-9.3-5.5-10.7-0.5
	s-6.4,10.2-6.4,10.2c-9.2,9.2-17.5-0.7-22.9-11.1c-1.8-3.4-3.4-6.9-4.7-10.5c-1.2-3.2-1.9-5.4-1.9-5.4l38.2-32.6
	C502,677.3,505.7,679,509.6,684.3z"/>
<path class="st11" d="M449.4,705.2c2.1,2.8,3.8,5.9,5,9.2c0.3,0.8,0.7,1.7,1,2.7c5,14.9-2.9,32.8-5.2,30.9s-9.3-5.5-10.7-0.5
	s-6.4,10.2-6.4,10.2c-9.2,9.2-17.5-0.7-22.9-11.1c-1.8-3.4-3.4-6.9-4.7-10.5c-1.2-3.2-1.9-5.4-1.9-5.4l38.2-32.6
	C441.7,698.2,445.4,699.9,449.4,705.2z"/>
<path class="st11" d="M328.4,734c-0.2,3.5-0.9,7-2,10.3c-0.3,0.9-0.6,1.8-0.9,2.7c-5.7,14.7-23.2,23.4-23.7,20.5s-3.7-10.2-7.9-7.2
	s-11.4,3.8-11.4,3.8c-13,1.2-13-11.7-10.6-23.2c0.8-3.8,1.8-7.5,3-11.1c1.1-3.2,1.9-5.3,1.9-5.3l50.2-0.7
	C327,723.7,328.7,727.4,328.4,734z"/>
<path class="st11" d="M263.5,717.6c-0.2,3.5-0.9,7-2,10.3c-0.3,0.9-0.6,1.8-0.9,2.7c-5.7,14.7-23.2,23.4-23.7,20.5
	s-3.7-10.2-7.9-7.2s-11.4,3.8-11.4,3.8c-13,1.2-13-11.7-10.6-23.2c0.8-3.8,1.8-7.5,3-11.1c1.1-3.2,1.9-5.3,1.9-5.3l50.2-0.7
	C262.1,707.3,263.8,711,263.5,717.6z"/>
<path class="st2" d="M611.6,497.5c0,134.2-45.4,242.9-254.8,242.9c-140.7,0-249.6-35-254.8-242.9
	c-3.4-134.1,114.1-242.9,254.8-242.9S611.6,363.3,611.6,497.5z"/>
<path class="st11" d="M309,258.8L309,258.8C309,258.8,309,258.8,309,258.8L309,258.8z"/>
<path class="st11" d="M309.5,258.7c0.6-0.1,1.9-0.3,3.8-0.4l-4.1,0.5c0.1,0,0.1,0,0.2,0C309.4,258.7,309.4,258.7,309.5,258.7z"/>
<path class="st11" d="M497.8,358l-18.6,6.7c-9.5-12.7-19.7-24.9-30.6-36.4c-11.9-12.7-24.8-24.3-38.7-34.7
	c-47.6-35.3-84.5-36.2-96.6-35.3l28-3.3c26.4,4.5,51.8,13.7,75.1,27.1c16.2,9.4,31.4,20.5,45.1,33.3C485.8,338,497.8,358,497.8,358z
	"/>
<path class="st11" d="M329.6,370.6c0,0-24.6-81.8-3.7-104.2c0,0,32.7-11.2,57.3,52.1L329.6,370.6z"/>
<path class="st2" d="M454,294.2c0,0,65.1-55.3,93.9-45.2c0,0,23.4,25.5-24.7,73.4L454,294.2z"/>
<path class="st11" d="M454,294.2c0,0,65.1-55.3,93.9-45.2c0,0,23.4,25.5-24.7,73.4L454,294.2z"/>
<path class="st2" d="M657,559.2c0,72.1-51.7,129.1-100.4,129.1s-75.9-57-75.9-129.1s39.6-127.8,88.2-130.6
	C645.8,424.2,657,487.1,657,559.2z"/>
<path class="st11" d="M657,559.2c0,72.1-51.7,129.1-100.4,129.1s-75.9-57-75.9-129.1s39.6-127.8,88.2-130.6
	C645.8,424.2,657,487.1,657,559.2z"/>
<ellipse class="st2" cx="553.6" cy="570" rx="16.4" ry="20.8"/>
<ellipse class="st2" cx="611.6" cy="552.1" rx="16.4" ry="20.8"/>
<path class="st12" d="M464.6,302c0,4.7-1.1,9.3-3.2,13.4c-2.8,5.5-7.3,10-12.8,12.8c-11.9-12.7-24.8-24.3-38.7-34.7
	c1.2-4.3,3.4-8.2,6.4-11.4c5.2-5.8,12.6-9.1,20.3-9.1C452.1,273,464.6,286,464.6,302z"/>
</svg>
